<mxfile host="app.diagrams.net" modified="2023-11-17T13:50:01.058Z" agent="Mozilla/5.0 (Windows NT 10.0; Win64; x64) AppleWebKit/537.36 (KHTML, like Gecko) Chrome/119.0.0.0 Safari/537.36" version="22.1.3" etag="1RjHKo_WWShg9wQmIqeY" type="github">
  <diagram name="Страница — 1" id="8Oj5ul2X1dJTDSRww6ff">
    <mxGraphModel>
      <root>
        <mxCell id="0" />
        <mxCell id="1" parent="0" />
      </root>
    </mxGraphModel>
  </diagram>
</mxfile>
